<svg xmlns="http://www.w3.org/2000/svg" viewBox="0 0 64 64" fill="none">
  <defs>
    <linearGradient id="ll-bg" x1="10" y1="8" x2="58" y2="60" gradientUnits="userSpaceOnUse">
      <stop offset="0" stop-color="#22d3ee" />
      <stop offset="0.56" stop-color="#0ea5a1" />
      <stop offset="1" stop-color="#1d4ed8" />
    </linearGradient>
    <linearGradient id="ll-glow" x1="16" y1="10" x2="54" y2="54" gradientUnits="userSpaceOnUse">
      <stop offset="0" stop-color="#d8fbff" stop-opacity="0.9" />
      <stop offset="1" stop-color="#d8fbff" stop-opacity="0" />
    </linearGradient>
  </defs>

  <rect x="4" y="4" width="56" height="56" rx="16" fill="#0b1220" />
  <rect x="5.5" y="5.5" width="53" height="53" rx="14.5" fill="url(#ll-bg)" />
  <rect x="5.5" y="5.5" width="53" height="53" rx="14.5" stroke="rgba(232,245,255,0.28)" />

  <path
    d="M22 18a4 4 0 0 1 4-4h3a4 4 0 0 1 4 4v22h13a4 4 0 0 1 4 4v2a4 4 0 0 1-4 4H26a4 4 0 0 1-4-4V18Z"
    fill="#f5fbff"
  />
  <path d="M40 18a4 4 0 0 1 4-4h2a4 4 0 0 1 4 4v14a4 4 0 0 1-4 4h-2a4 4 0 0 1-4-4V18Z" fill="#0d223a" />

  <circle cx="14" cy="14" r="2.4" fill="#e6f9ff" />
  <circle cx="50" cy="50" r="2.4" fill="#e6f9ff" />
  <path d="M15.8 15.8L24 24" stroke="#d9f8ff" stroke-opacity="0.55" stroke-width="1.5" stroke-linecap="round" />
  <path d="M40 40L48.2 48.2" stroke="#d9f8ff" stroke-opacity="0.55" stroke-width="1.5" stroke-linecap="round" />

  <rect x="8" y="8" width="48" height="48" rx="12" fill="url(#ll-glow)" />
</svg>
